<?xml version="1.0" encoding="utf-8"?>
<!-- Generator: Adobe Illustrator 24.2.1, SVG Export Plug-In . SVG Version: 6.00 Build 0)  -->
<svg version="1.1" id="Layer_1" xmlns="http://www.w3.org/2000/svg" xmlns:xlink="http://www.w3.org/1999/xlink" x="0px" y="0px"
	 viewBox="0 0 216 234" style="enable-background:new 0 0 216 234;" xml:space="preserve">
<style type="text/css">
	.st0{fill:#CF292D;}
</style>
<g>
	<polygon points="33.2,79.74 33.2,42.14 70.8,42.14 70.8,48.74 39.8,48.74 39.8,79.74 	"/>
	<polygon points="35,43.94 35,46.94 35,77.94 38,77.94 38,46.94 69,46.94 69,43.94 	"/>
	<polygon points="176.2,79.74 176.2,48.74 145.2,48.74 145.2,42.14 182.8,42.14 182.8,79.74 	"/>
	<polygon points="181,43.94 178,43.94 147,43.94 147,46.94 178,46.94 178,77.94 181,77.94 	"/>
	<polygon points="145.2,191.74 145.2,185.14 176.2,185.14 176.2,154.14 182.8,154.14 182.8,191.74 	"/>
	<polygon points="181,189.94 181,186.94 181,155.94 178,155.94 178,186.94 147,186.94 147,189.94 	"/>
	<polygon points="33.2,191.74 33.2,154.14 39.8,154.14 39.8,185.14 70.8,185.14 70.8,191.74 	"/>
	<polygon points="35,189.94 38,189.94 69,189.94 69,186.94 38,186.94 38,155.94 35,155.94 	"/>
	<circle class="st0" cx="160" cy="64.94" r="6"/>
	<g>
		<path d="M62.67,115.45l5.95-7.74h6.03l-7.45,8.89l8.14,9.89h-6.33l-6.35-8.14v8.14h-4.88v-18.77h4.88V115.45z"/>
		<path d="M82.39,107.71v14.64h5.85v4.13H77.51v-18.77H82.39z"/>
		<path d="M95.29,107.71v10.21c0,0.55,0.02,1.11,0.06,1.68c0.04,0.57,0.17,1.09,0.37,1.56s0.54,0.84,0.98,1.13
			c0.45,0.29,1.08,0.44,1.89,0.44c0.81,0,1.44-0.15,1.88-0.44c0.44-0.29,0.77-0.67,0.98-1.13c0.21-0.46,0.34-0.98,0.39-1.56
			c0.04-0.57,0.06-1.13,0.06-1.68v-10.21h4.86v10.88c0,2.92-0.67,5.05-2,6.4s-3.39,2.02-6.16,2.02c-2.77,0-4.83-0.67-6.18-2.02
			c-1.34-1.34-2.02-3.48-2.02-6.4v-10.88H95.29z"/>
		<path d="M117.82,111.84v14.64h-4.88v-14.64h-4.01v-4.13h12.9v4.13H117.82z"/>
		<path d="M137.34,113.98c-1.13-1.38-2.52-2.07-4.18-2.07c-0.73,0-1.41,0.13-2.03,0.4c-0.62,0.27-1.16,0.63-1.61,1.08
			c-0.45,0.46-0.8,1-1.06,1.63s-0.39,1.31-0.39,2.04c0,0.75,0.13,1.44,0.39,2.07s0.61,1.18,1.07,1.64c0.46,0.46,0.99,0.83,1.61,1.1
			c0.61,0.27,1.28,0.4,1.99,0.4c1.56,0,2.96-0.66,4.21-1.99v5.78l-0.5,0.17c-0.75,0.27-1.44,0.46-2.09,0.58
			c-0.65,0.12-1.29,0.19-1.92,0.19c-1.29,0-2.54-0.25-3.72-0.73c-1.19-0.49-2.23-1.18-3.14-2.07c-0.9-0.89-1.63-1.94-2.18-3.16
			c-0.55-1.22-0.82-2.55-0.82-4s0.27-2.77,0.81-3.97c0.54-1.2,1.26-2.24,2.17-3.11s1.95-1.55,3.15-2.04
			c1.2-0.49,2.45-0.73,3.76-0.73c0.75,0,1.48,0.08,2.2,0.24c0.72,0.16,1.48,0.4,2.28,0.73V113.98z"/>
		<path d="M146.11,114.96h7.05v-7.25h4.88v18.77h-4.88v-7.74h-7.05v7.74h-4.88v-18.77h4.88V114.96z"/>
	</g>
</g>
</svg>
